#
#
#

mtllib ground.mtl


#
#  Mesh Mesh Mesh Mesh
#
g  Mesh Mesh Mesh Mesh

v -14.532746 0.633289 13.996283
v 12.264527 0.633289 13.996283
v 12.264527 0.898923 13.996283
v -14.532746 0.898923 13.996283
v 12.264527 0.898923 -14.663473
v -14.532746 0.898923 -14.663473
v 12.264527 0.633289 -14.663473
v -14.532746 0.633289 -14.663473
vn -0.408248 -0.408248 0.816497
vn 0.666667 -0.666667 0.333333
vn 0.408248 0.408248 0.816497
vn -0.666667 0.666667 0.333333
vn 0.666667 0.666667 -0.333333
vn -0.408248 0.408248 -0.816497
vn 0.408248 -0.408248 -0.816497
vn -0.666667 -0.666667 -0.333333
vt 0.375000 0.000000
vt 0.625000 0.000000
vt 0.625000 0.250000
vt 0.375000 0.250000
vt 0.625000 0.500000
vt 0.375000 0.500000
vt 0.625000 0.750000
vt 0.375000 0.750000
vt 0.625000 1.000000
vt 0.375000 1.000000
vt 0.875000 0.000000
vt 0.875000 0.250000
vt 0.125000 0.000000
vt 0.125000 0.250000
f 1/1/1 2/2/2 3/3/3
f 1/1/1 3/3/3 4/4/4
f 4/4/4 3/3/3 5/5/5
f 4/4/4 5/5/5 6/6/6
f 6/6/6 5/5/5 7/7/7
f 6/6/6 7/7/7 8/8/8
f 8/8/8 7/7/7 2/9/2
f 8/8/8 2/9/2 1/10/1
f 2/2/2 7/11/7 5/12/5
f 2/2/2 5/12/5 3/3/3
f 8/13/8 1/1/1 4/4/4
f 8/13/8 4/4/4 6/14/6
